<svg width="124" height="124" viewBox="0 0 124 124" fill="none" xmlns="http://www.w3.org/2000/svg">
<circle cx="62" cy="57" r="57" fill="#222222"/>
<path d="M42.5586 72.9737C43.4352 72.9789 44.3118 72.9772 45.1884 72.9772H46.8084L46.8481 73.0948C47.7697 75.8196 50.2576 77.1474 52.3151 77.2529C55.5586 77.4189 57.8097 76.0201 59.0078 73.0948L59.051 72.9876H68.6882L68.7314 73.0965C69.8207 75.8749 71.821 77.2823 74.6755 77.2823C74.679 77.2823 74.6842 77.2823 74.6876 77.2823C77.6459 77.2788 79.7033 75.868 80.8012 73.0878L80.8444 72.9789H82.6149C83.5986 72.9789 84.5824 72.9806 85.5662 72.9772C86.4185 72.9755 86.9943 72.4187 86.996 71.5923C87.0029 69.317 87.0012 67.0037 86.9995 64.7664L86.9977 62.3113C86.9977 61.9569 86.8819 61.6526 86.645 61.3794C86.3978 61.0959 83.4102 58.0547 83.2425 57.7555C81.7262 55.0567 80.3015 52.2713 78.7662 49.4635C78.4118 48.8134 77.9294 48.5247 77.2033 48.5247C77.1998 48.5247 77.1946 48.5247 77.1912 48.5247C75.7198 48.5316 74.4698 48.5299 73.0244 48.5282L70.329 48.5264V48.3535C70.329 48.191 70.329 48.0337 70.3307 47.8798C70.3324 47.5427 70.3324 47.2989 70.3272 46.979C70.3203 46.5969 70.1578 46.2771 69.8449 46.0316C69.5336 45.786 69.1498 45.6667 68.6744 45.6667C59.9657 45.6667 51.6062 45.6667 42.8992 45.6685C42.671 45.6685 42.4445 45.6858 42.2284 45.7203C41.6371 45.8154 41.1461 46.3203 41.1115 46.8701C41.0735 47.4821 41.4625 47.9472 42.059 48.1115C42.3287 48.1858 42.6243 48.1962 42.8508 48.1962C49.8444 48.1997 56.838 48.1997 63.8281 48.1997H67.8133V54.6002C67.8133 54.9719 67.8133 55.3419 67.8116 55.7137C67.8099 56.6335 67.8082 57.5826 67.8185 58.518C67.8255 59.1767 68.3251 59.7283 68.9821 59.8026C69.2363 59.832 69.5077 59.8458 69.8103 59.8458C73.5327 59.8493 77.3831 59.851 81.1677 59.8407C81.1695 59.8407 81.1712 59.8407 81.1729 59.8407C81.5464 59.8407 81.8022 59.9582 82.0287 60.2331C82.0287 60.2331 83.5986 61.6837 84.2055 62.3839L84.2401 62.4237C84.3784 62.5828 84.4545 62.7868 84.4545 62.9977C84.451 64.5797 84.4908 70.4408 84.4908 70.4408H80.8479L80.8081 70.2627C79.8001 67.1973 77.0857 66.0458 75.068 65.9922C71.9801 65.9093 69.8328 67.3339 68.6917 70.2264L68.6484 70.4391H59.0649C59.0372 70.2973 58.9957 70.1556 58.9404 70.0207C57.8408 67.3633 55.8335 66.0043 52.9738 65.9819C52.9496 65.9819 52.9254 65.9819 52.9029 65.9819C50.0104 65.9819 48.0446 67.3581 46.9242 70.076C46.8775 70.1884 46.8412 70.306 46.8136 70.4235H45.3353C44.4708 70.4235 43.6064 70.4218 42.7402 70.427C42.5137 70.4287 42.3218 70.446 42.1541 70.484C41.7132 70.5843 41.3518 70.816 41.1893 71.2171C41.0406 71.5819 41.0787 71.9779 41.2896 72.3012C41.5766 72.7472 42.0019 72.9703 42.5586 72.9737ZM70.3549 57.3026V51.0956C70.3549 51.0956 75.3602 51.0662 76.2489 51.0611C76.5705 51.0576 76.7779 51.1734 76.9266 51.4449C77.6147 52.7018 78.3236 54.0539 79.0065 55.2866L80.0802 57.3008H70.3549V57.3026ZM71.2125 71.1825C71.2868 70.4132 71.662 69.7856 72.3587 69.2651C73.0659 68.7378 73.9027 68.4854 74.8432 68.5165C75.9014 68.5511 76.7849 68.9263 77.4678 69.6299C78.028 70.2057 78.3046 70.8765 78.2925 71.6217C78.3219 73.0671 77.1497 74.3448 75.5072 74.6595C75.215 74.7148 74.928 74.7442 74.6513 74.7442C73.7108 74.7442 72.8601 74.4226 72.115 73.7846C71.3871 73.1605 71.1001 72.334 71.2125 71.1825ZM49.3603 71.4799C49.3741 70.612 49.86 69.8028 50.7262 69.2012C52.1647 68.2036 54.229 68.3298 55.5275 69.4934C56.717 70.5584 56.8484 72.2165 55.8404 73.4354C55.1644 74.2532 54.1063 74.72 52.9617 74.72C52.8545 74.72 52.7473 74.7165 52.6401 74.7079C51.3832 74.6128 50.2905 73.9679 49.7182 72.9841C49.4779 72.5726 49.3707 72.1231 49.3603 71.4851V71.4799Z" fill="white"/>
<path d="M54.8199 51.6593C54.6384 51.6022 54.424 51.5728 54.182 51.5728C53.0166 51.5694 50.195 51.5659 47.3958 51.5659C44.6192 51.5659 41.8615 51.5676 40.7601 51.5746C40.468 51.5763 40.1861 51.6282 39.9666 51.7215C39.5343 51.9048 39.2456 52.2765 39.1937 52.7157C39.1419 53.1617 39.339 53.5974 39.7245 53.8793C40.0046 54.085 40.3487 54.1818 40.8086 54.1818H43.9328C47.3163 54.1818 50.6999 54.1818 54.0834 54.1801C54.2857 54.1801 54.4828 54.1611 54.6712 54.1213C55.2574 54.002 55.7086 53.5144 55.7415 52.9646C55.7778 52.3595 55.4164 51.8477 54.8199 51.6593Z" fill="white"/>
<path d="M53.1003 58.8569C53.2092 58.4298 53.0951 58.0546 52.7527 57.7088C52.4571 57.4097 52.0664 57.2766 51.4872 57.2766C51.4872 57.2766 51.4872 57.2766 51.4854 57.2766L46.5597 57.2783C43.7882 57.2783 41.0184 57.2783 38.2469 57.2818C38.0567 57.2818 37.8561 57.3008 37.6521 57.3354C37.1248 57.4288 36.6649 57.8817 36.5836 58.3918C36.4937 58.9537 36.76 59.4499 37.2787 59.6868C37.5467 59.8095 37.87 59.8804 38.1639 59.8839C40.396 59.9011 49.2949 59.896 51.5114 59.889C51.6825 59.889 51.9332 59.8804 52.1528 59.813C52.668 59.6539 52.9758 59.3427 53.1003 58.8569Z" fill="white"/>
<path d="M49.4375 64.464C49.5084 63.8589 49.1194 63.2866 48.5108 63.1033C48.3292 63.048 48.1079 63.0221 47.833 63.0203C45.9813 63.0152 44.1296 63.0169 42.2779 63.0169H40.9553H40.8256C40.7824 63.0169 40.7392 63.0169 40.6977 63.0169C40.6129 63.0169 40.5299 63.0186 40.4487 63.0238C40.013 63.0532 39.6119 63.2866 39.3802 63.6462C39.1675 63.9764 39.1191 64.3689 39.2505 64.7251C39.439 65.2351 39.9525 65.5826 40.5282 65.5878C41.8267 65.5999 47.6688 65.6051 48.1736 65.5844C48.8012 65.5567 49.3666 65.0553 49.4375 64.464Z" fill="white"/>
</svg>
