
<svg width="424" height="301" viewBox="0 0 424 301" fill="none" xmlns="http://www.w3.org/2000/svg">
<circle cx="211.5" cy="150.5" r="150.5" fill="black"/>
<path d="M101.48 156V138.5H118.405V142.225H106.03V145.65H115.955V149.3H106.03V156H101.48ZM135.338 156L133.713 152.35H123.138L121.513 156H117.013L125.013 138.5H131.988L139.988 156H135.338ZM124.663 148.925H132.213L128.438 140.425L124.663 148.925ZM161.42 138.5H169.37L169.345 156H164.995V140.875L159.02 156H152.845L146.87 140.875V156H142.495V138.5H150.47L155.995 153.45L161.42 138.5ZM173.745 156V138.5H190.67V142.225H178.295V145.65H188.22V149.3H178.295V156H173.745ZM207.603 156L205.978 152.35H195.403L193.778 156H189.278L197.278 138.5H204.253L212.253 156H207.603ZM196.928 148.925H204.478L200.703 140.425L196.928 148.925ZM229.735 149.675L234.135 149.9C233.802 151.95 232.768 153.533 231.035 154.65C229.318 155.75 226.968 156.3 223.985 156.3C220.402 156.3 217.627 155.5 215.66 153.9C213.71 152.283 212.735 150.067 212.735 147.25C212.735 144.433 213.693 142.225 215.61 140.625C217.527 139.008 220.21 138.2 223.66 138.2C226.477 138.2 228.777 138.75 230.56 139.85C232.343 140.933 233.427 142.408 233.81 144.275L229.435 144.55C229.152 143.75 228.485 143.108 227.435 142.625C226.385 142.142 225.127 141.9 223.66 141.9C221.627 141.9 220.052 142.392 218.935 143.375C217.835 144.342 217.285 145.633 217.285 147.25C217.285 148.867 217.86 150.167 219.01 151.15C220.16 152.117 221.818 152.6 223.985 152.6C225.568 152.6 226.852 152.333 227.835 151.8C228.835 151.25 229.468 150.542 229.735 149.675ZM235.281 142.225V138.5H254.806V142.225H247.331V156H242.781V142.225H235.281ZM259.168 153.875C257.151 152.258 256.143 150.05 256.143 147.25C256.143 144.45 257.151 142.242 259.168 140.625C261.185 139.008 263.985 138.2 267.568 138.2C271.151 138.2 273.943 139.008 275.943 140.625C277.96 142.242 278.968 144.45 278.968 147.25C278.968 150.05 277.96 152.258 275.943 153.875C273.943 155.492 271.151 156.3 267.568 156.3C263.985 156.3 261.185 155.492 259.168 153.875ZM262.493 143.375C261.293 144.358 260.693 145.65 260.693 147.25C260.693 148.85 261.293 150.142 262.493 151.125C263.693 152.108 265.385 152.6 267.568 152.6C269.735 152.6 271.418 152.108 272.618 151.125C273.818 150.142 274.418 148.85 274.418 147.25C274.418 145.65 273.818 144.358 272.618 143.375C271.418 142.392 269.735 141.9 267.568 141.9C265.385 141.9 263.693 142.392 262.493 143.375ZM296.815 156L290.74 149.575H286.84V156H282.29V138.5H286.84H294.54C296.59 138.5 298.274 138.975 299.59 139.925C300.907 140.875 301.565 142.292 301.565 144.175C301.565 145.842 301.065 147.108 300.065 147.975C299.065 148.825 297.69 149.333 295.94 149.5L302.59 156H296.815ZM286.84 142.125V146.15H294.315C295.149 146.15 295.807 145.983 296.29 145.65C296.774 145.3 297.015 144.808 297.015 144.175C297.015 143.525 296.765 143.025 296.265 142.675C295.782 142.308 295.132 142.125 294.315 142.125H286.84ZM319.155 138.5H324.38L315.305 149.3V156H310.755V149.3L301.68 138.5H307.105L313.13 146.1L319.155 138.5Z" fill="white"/>
</svg>
