<svg width="114" height="114" viewBox="0 0 114 114" fill="none" xmlns="http://www.w3.org/2000/svg">
<circle cx="57" cy="57" r="57" fill="#222222"/>
<path d="M76.9909 70.2195C76.9926 69.461 76.9926 68.7042 76.9926 67.9457V67.2831C76.9943 66.7719 76.9943 66.2606 76.9909 65.751C76.9859 65.1692 76.5924 64.6646 76.034 64.5267C75.9331 64.5015 75.8322 64.4931 75.7246 64.4847C75.7094 64.483 75.6926 64.4813 75.6758 64.4813V59.2914C75.6758 54.6414 75.6758 49.9913 75.6741 45.3413C75.6741 44.4718 75.4605 43.6881 75.0384 43.0154C73.9907 41.3387 72.462 40.4844 70.4927 40.481C64.213 40.4659 57.8291 40.4676 51.6554 40.4676C48.7594 40.4676 45.8617 40.4693 42.9641 40.4676H43.1222C42.3435 40.4676 41.5968 40.6156 40.9073 40.9065C38.948 41.7339 37.7876 43.4661 37.8028 45.5381C37.8246 48.4963 37.8162 51.5049 37.8095 54.4144L37.8061 55.4654C37.8028 57.0059 38.901 57.9326 39.9235 58.1394C40.3237 58.2202 40.581 58.2336 40.983 58.2471C41.1427 58.2521 41.3008 58.2572 41.4589 58.2656C41.5985 58.274 41.7414 58.2723 41.8793 58.2689C41.9012 58.2689 42.0307 58.2689 42.0526 58.2672V61.5399H41.6624C41.2806 61.5399 40.8972 61.5416 40.5154 61.5433C39.6191 61.5467 38.8741 61.5517 37.9625 61.5332C37.5455 61.5298 37.1772 61.6644 36.9148 61.9234C36.6457 62.1891 36.5061 62.5608 36.5078 62.9997C36.528 65.8772 36.5246 68.8034 36.5213 71.6321C36.5196 72.6748 36.5196 73.7192 36.5196 74.7619V75.2328C36.5179 75.6162 36.5179 75.9996 36.523 76.3814C36.5314 77.0625 36.8862 77.5031 37.5472 77.6528C37.7237 77.6932 37.9188 77.7117 38.1442 77.7117C49.612 77.7133 60.8949 77.7133 72.3628 77.7133H75.3109H75.395C75.4235 77.7133 75.4538 77.715 75.4824 77.715C75.511 77.715 75.5396 77.715 75.5699 77.7133C76.4595 77.6747 77.0078 77.1146 76.9993 76.2519C76.9842 74.2439 76.9876 72.1972 76.9909 70.2195ZM74.4952 66.94V75.2008H50.0661V66.94H74.4952ZM42.0576 66.5835C42.0593 67.1923 42.3183 67.6464 42.8665 67.8246C43.4501 68.013 43.8352 67.8818 44.2102 67.4984C44.4289 67.2747 44.5331 67.0006 44.5331 66.6609C44.5298 65.8704 44.5315 65.0783 44.5331 64.2879C44.5331 64.2038 44.5382 64.1181 44.5432 64.0306L44.5449 64.0003C44.5735 63.9953 44.6912 63.9919 44.7165 63.9919C45.5102 63.9902 46.3023 63.9902 47.0911 63.9902H47.5704L47.5872 75.2008H44.5197C44.5146 75.1234 44.4911 73.1844 44.5163 72.6311C44.5315 72.2931 44.4121 71.9718 44.18 71.7229C43.9294 71.4539 43.6923 71.3025 43.3071 71.2941C42.954 71.2891 42.6799 71.4135 42.4343 71.6523C42.1804 71.8978 42.0391 72.2426 42.0374 72.621C42.0324 73.1575 42.0341 73.694 42.0341 74.2304V75.2059H39.0187V64.0087H42.0559V64.969C42.0559 65.5089 42.0559 66.047 42.0576 66.5835ZM40.3035 45.4203C40.3019 43.9925 41.395 43.1046 42.4764 42.965C42.7791 42.9263 43.0868 42.9061 43.3896 42.9061C51.5023 42.9028 61.132 42.9011 70.4624 42.9061C71.5236 42.9061 72.3325 43.3182 72.869 44.1288C73.1044 44.487 73.2104 44.9091 73.2087 45.4994C73.2053 47.1929 73.2053 48.8848 73.2053 50.5783V64.478H60.8108V61.6896C60.8108 57.3574 60.8108 53.0269 60.8091 48.6913C60.8091 48.5047 60.8091 48.3113 60.7553 48.128C60.6124 47.6369 60.1448 47.2787 59.5932 47.2383C59.5461 47.235 59.499 47.235 59.452 47.2366H59.4032H56.7746C53.8971 47.2366 51.018 47.2366 48.1405 47.2366C47.3871 47.2366 46.8489 47.6487 46.7379 48.3096C46.7194 48.4155 46.7211 48.5215 46.7211 48.6241V48.6897V55.2014V55.2805C46.7211 55.3494 46.7211 55.4184 46.7194 55.4856C46.711 55.7648 46.6858 55.7917 46.4201 55.7968C46.2468 55.8001 46.0753 55.8001 45.9021 55.7984H45.6666L40.7374 55.8001C40.3405 55.8001 40.3035 55.7631 40.3035 55.3545V51.964C40.3052 49.7778 40.3069 47.5999 40.3035 45.4203ZM50.0644 63.5496C50.0644 63.4723 50.0644 63.3949 50.0661 63.3159C50.0678 63.1056 50.0711 62.8887 50.0459 62.6734C49.9669 61.9957 49.496 61.5652 48.8149 61.5483C48.1977 61.5332 46.3965 61.5366 45.1941 61.5383H44.5466V58.2656H44.6593C44.7535 58.2656 44.8409 58.2656 44.9284 58.2656C45.1218 58.2622 45.3135 58.2622 45.5069 58.2605C45.9441 58.2588 46.2183 58.2572 46.6622 58.2235C47.8916 58.131 49.2118 57.09 49.2 55.5731C49.1899 54.2613 49.1933 52.926 49.1966 51.6344C49.1983 51.0778 49.1983 50.5211 49.2 49.9628V49.6836H58.3403V64.4679H50.0678V64.2644C50.0661 64.0256 50.0661 63.7868 50.0644 63.5496Z" fill="white"/>
<path d="M66.9153 54.0105C67.7746 54.0105 68.6374 53.7381 69.3336 53.1781C70.5142 52.2279 70.9128 50.7395 70.3477 49.3857C69.8045 48.0824 68.375 47.2365 66.7067 47.2297H66.7034C66.0206 47.2415 65.2638 47.5072 64.6281 47.9579C63.8461 48.5129 63.3533 49.3252 63.2406 50.2451C63.1313 51.1415 63.4004 52.0177 63.9974 52.7139C64.7323 53.5699 65.8204 54.0105 66.9153 54.0105ZM65.6758 50.6571C65.6708 50.3864 65.7969 50.1055 66.0239 49.8852C66.2695 49.6481 66.584 49.5186 66.9035 49.5304C67.556 49.5539 68.1177 50.0803 68.1059 50.6571C68.0942 51.2323 67.551 51.6981 66.8968 51.6981C66.8951 51.6981 66.8934 51.6981 66.8917 51.6981C66.2325 51.6965 65.6876 51.2289 65.6758 50.6571Z" fill="white"/>
<path d="M69.5805 58.242C69.335 58.1411 69.0793 58.1159 68.9078 58.1109C68.2452 58.0957 65.625 58.0991 64.9843 58.1075C64.7673 58.1109 64.5655 58.1361 64.3856 58.1832C63.9164 58.3076 63.5397 58.7415 63.4909 59.2141C63.4388 59.722 63.7028 60.1844 64.167 60.393C64.4041 60.5006 64.6782 60.5612 64.9422 60.5628C65.5594 60.5696 66.18 60.5729 66.7989 60.5729C67.3169 60.5729 67.8315 60.5713 68.3394 60.5696L68.8288 60.5679C68.9969 60.5679 69.1601 60.5511 69.3165 60.5208C69.8395 60.4182 70.2582 59.9877 70.3104 59.4966C70.3676 58.9332 70.0901 58.4522 69.5805 58.242Z" fill="white"/>
</svg>
