<svg width="114" height="114" viewBox="0 0 114 114" fill="none" xmlns="http://www.w3.org/2000/svg">
<circle cx="57" cy="57" r="57" fill="#222222"/>
<path d="M36.5299 73.6051C36.5337 72.005 36.7628 70.4185 37.2095 68.8877C38.0625 65.9649 39.6298 63.3463 41.871 61.109C42.3601 60.6199 42.8876 60.1675 43.3979 59.7285C43.6309 59.5282 43.8638 59.328 44.0949 59.1239L44.4203 58.8351L45.7277 60.0346C48.1171 62.2277 53.7144 67.3647 55.6706 69.1458C56.3349 69.7503 57.2302 69.7542 57.8983 69.1573C58.8245 68.3274 67.8759 59.9326 68.6596 59.1759L68.9099 58.9333L69.2796 59.1277C69.32 59.147 69.3643 59.1701 69.4163 59.2086C74.2992 62.9632 76.8408 67.8172 76.9678 73.6378C76.9717 73.8284 77.0044 74.0094 77.0602 74.1442C77.3317 74.8027 78.0538 75.1762 78.7797 75.0299C79.5306 74.8797 80.01 74.304 80.0004 73.5646C79.9792 71.9396 79.7963 70.457 79.4439 69.0283C78.5659 65.4701 76.7753 62.2739 74.124 59.5282C71.7287 57.0483 68.8502 55.1864 65.3209 53.8328C65.1476 53.7654 64.9704 53.7057 64.7837 53.6402C64.6913 53.6075 64.595 53.5748 64.4949 53.5401L63.7574 53.2802L64.3755 52.6871C64.4256 52.6371 64.4641 52.6005 64.5045 52.5697C65.3652 51.9189 66.0814 51.218 66.6956 50.4286C68.6153 47.9564 69.3778 45.3455 69.0254 42.4458C68.6615 39.4459 67.2117 36.9448 64.7182 35.0097C61.8666 32.7974 58.5048 31.9637 54.7233 32.5298C51.4539 33.0188 48.7833 34.5303 46.7828 37.018C44.7457 39.5518 43.9948 42.4323 44.5531 45.5784C44.971 47.9409 46.157 50.0223 48.0805 51.7649C48.3116 51.9728 48.558 52.175 48.818 52.3868C48.947 52.4927 49.0798 52.6005 49.2165 52.7141L49.8462 53.2378L48.9605 53.5805C48.8815 53.6114 48.8199 53.6364 48.7544 53.6576C46.3034 54.4836 44.0564 55.66 42.0732 57.1542C38.5958 59.7766 36.1082 63.0691 34.6814 66.9411C33.8728 69.1323 33.478 71.3793 33.5031 73.6185C33.505 73.8092 33.5262 73.9593 33.5647 74.0787C33.7861 74.7488 34.5024 75.1454 35.2687 75.0222C36.0196 74.9047 36.5279 74.3348 36.5299 73.6051ZM48.6254 47.9294C46.7905 45.0258 47.0562 41.252 49.2878 38.5391C50.9263 36.5462 53.1078 35.3987 55.7707 35.133C58.5742 34.8518 61.0599 35.6124 63.1548 37.3934C65.1996 39.1321 66.2047 41.3406 66.1411 43.9553C66.093 45.9693 65.3478 47.7619 63.9269 49.283C62.0111 51.3355 59.6312 52.3098 56.4369 52.3483H56.4234H56.41C53.0559 52.2039 50.3622 50.677 48.6254 47.9294ZM47.707 57.0502C50.651 55.7159 53.62 55.0689 56.7835 55.0689C56.7854 55.0689 56.7874 55.0689 56.7912 55.0689C59.9431 55.0689 62.9122 55.7178 65.8638 57.0521L66.5281 57.3525L56.7854 66.2923L47.0427 57.3525L47.707 57.0502Z" fill="white"/>
<path d="M44.9123 69.6963C44.9046 69.6963 44.8988 69.6963 44.8911 69.6963C44.0613 69.7059 43.474 70.2489 43.4625 71.0191C43.4567 71.4427 43.4586 73.191 43.4644 73.6396C43.474 74.4059 44.0748 74.9681 44.8892 74.9778C45.6883 74.9874 46.3314 74.4136 46.3468 73.6742C46.3679 72.7462 46.3699 71.8393 46.3506 70.9806C46.3352 70.2335 45.7306 69.6963 44.9123 69.6963Z" fill="white"/>
<path d="M69.5292 69.6963C69.4676 69.6963 69.406 69.6982 69.3405 69.7021C68.6916 69.7464 68.139 70.3278 68.1332 70.9729C68.1275 71.8335 68.1275 72.7192 68.1332 73.6819C68.1352 74.0324 68.2796 74.3558 68.5395 74.5946C68.8071 74.8391 69.173 74.9739 69.5715 74.9739C69.5754 74.9739 69.5792 74.9739 69.5831 74.9739C70.3822 74.9681 70.9887 74.4136 70.9964 73.6858L70.9906 70.9016C70.9829 70.7553 70.9482 70.6051 70.8943 70.4896C70.6556 69.9639 70.1973 69.6963 69.5292 69.6963Z" fill="white"/>
</svg>
